<svg width="167" height="24" viewBox="0 0 167 24" fill="none" xmlns="http://www.w3.org/2000/svg">
<path fill-rule="evenodd" clip-rule="evenodd" d="M18.4373 7.58598H9.38592C7.19686 7.58598 5.82397 9.13615 5.82397 11.3306V17.2513C5.82397 19.4458 7.18929 20.9959 9.38592 20.9959H18.4362C20.6339 20.9959 22.0003 19.4458 22.0003 17.2513V11.3306C22.0003 9.13615 20.6339 7.58598 18.4373 7.58598Z" stroke="#087F5B" stroke-width="1.5" stroke-linecap="round" stroke-linejoin="round"/>
<path d="M9.37183 12.0483H18.447" stroke="#087F5B" stroke-width="1.5" stroke-linecap="round" stroke-linejoin="round"/>
<path d="M18.0852 7.5836L16.4994 4.94051C15.3632 3.06928 13.3979 2.43796 11.5116 3.57519L3.76284 8.23869C1.88403 9.36728 1.50568 11.4029 2.63426 13.2893L5.69569 18.3549C5.83839 18.6003 5.99622 18.8208 6.17675 19.0186V19.0262" stroke="#087F5B" stroke-width="1.5" stroke-linecap="round" stroke-linejoin="round"/>
<path d="M34.0044 18.5V5.13717H35.5698L41.564 15.2357H40.724L46.6418 5.13717H48.2072L48.2263 18.5H46.3937L46.3746 8.01973H46.8136L41.5449 16.8774H40.6667L35.3598 8.01973H35.837V18.5H34.0044ZM56.3027 18.6145C55.2846 18.6145 54.381 18.3918 53.592 17.9464C52.803 17.501 52.1794 16.8901 51.7212 16.1138C51.263 15.3247 51.034 14.4339 51.034 13.4412C51.034 12.4358 51.263 11.545 51.7212 10.7687C52.1794 9.99233 52.803 9.38783 53.592 8.95512C54.381 8.5097 55.2846 8.28698 56.3027 8.28698C57.3081 8.28698 58.2054 8.5097 58.9944 8.95512C59.7962 9.38783 60.4198 9.99233 60.8652 10.7687C61.3233 11.5322 61.5524 12.4231 61.5524 13.4412C61.5524 14.4466 61.3233 15.3375 60.8652 16.1138C60.4198 16.8901 59.7962 17.501 58.9944 17.9464C58.2054 18.3918 57.3081 18.6145 56.3027 18.6145ZM56.3027 17.011C56.9518 17.011 57.5309 16.8646 58.0399 16.5719C58.5617 16.2792 58.9689 15.8656 59.2617 15.3311C59.5544 14.7839 59.7007 14.1539 59.7007 13.4412C59.7007 12.7158 59.5544 12.0922 59.2617 11.5704C58.9689 11.0359 58.5617 10.6223 58.0399 10.3296C57.5309 10.0369 56.9518 9.89052 56.3027 9.89052C55.6537 9.89052 55.0746 10.0369 54.5656 10.3296C54.0565 10.6223 53.6493 11.0359 53.3438 11.5704C53.0384 12.0922 52.8857 12.7158 52.8857 13.4412C52.8857 14.1539 53.0384 14.7839 53.3438 15.3311C53.6493 15.8656 54.0565 16.2792 54.5656 16.5719C55.0746 16.8646 55.6537 17.011 56.3027 17.011ZM69.4893 8.28698C70.3165 8.28698 71.0419 8.44606 71.6655 8.76423C72.3018 9.08239 72.7982 9.566 73.1545 10.215C73.5109 10.8641 73.689 11.685 73.689 12.6776V18.5H71.8564V12.8876C71.8564 11.9077 71.6146 11.1695 71.131 10.6732C70.6601 10.1769 69.992 9.9287 69.1266 9.9287C68.4775 9.9287 67.9112 10.056 67.4276 10.3105C66.944 10.565 66.5686 10.9405 66.3013 11.4368C66.0468 11.9331 65.9195 12.5504 65.9195 13.2885V18.5H64.0869V8.38243H65.8431V11.1123L65.5568 10.3869C65.8877 9.72508 66.3967 9.20965 67.084 8.84059C67.7712 8.47152 68.573 8.28698 69.4893 8.28698ZM81.5858 18.6145C80.504 18.6145 79.5495 18.3918 78.7223 17.9464C77.9078 17.501 77.2715 16.8901 76.8133 16.1138C76.3679 15.3375 76.1452 14.4466 76.1452 13.4412C76.1452 12.4358 76.3615 11.545 76.7942 10.7687C77.2397 9.99233 77.8442 9.38783 78.6078 8.95512C79.3841 8.5097 80.2559 8.28698 81.2231 8.28698C82.203 8.28698 83.0684 8.50333 83.8193 8.93603C84.5701 9.36874 85.1556 9.97961 85.5755 10.7687C86.0082 11.545 86.2246 12.4549 86.2246 13.4985C86.2246 13.5748 86.2182 13.6639 86.2055 13.7657C86.2055 13.8676 86.1991 13.963 86.1864 14.0521H77.5769V12.7349H85.2319L84.4874 13.193C84.5001 12.544 84.3665 11.9649 84.0865 11.4559C83.8065 10.9468 83.4184 10.5523 82.9221 10.2723C82.4385 9.97961 81.8721 9.83325 81.2231 9.83325C80.5867 9.83325 80.0204 9.97961 79.5241 10.2723C79.0277 10.5523 78.6396 10.9532 78.3596 11.475C78.0796 11.984 77.9396 12.5695 77.9396 13.2312V13.5367C77.9396 14.2112 78.0923 14.8157 78.3978 15.3502C78.7159 15.872 79.155 16.2792 79.715 16.5719C80.2749 16.8646 80.9176 17.011 81.643 17.011C82.2412 17.011 82.7821 16.9092 83.2657 16.7056C83.762 16.5019 84.1947 16.1965 84.5638 15.7893L85.5755 16.9728C85.1174 17.5073 84.5447 17.9146 83.8575 18.1946C83.183 18.4745 82.4257 18.6145 81.5858 18.6145ZM89.022 22.318C88.5384 22.318 88.0675 22.2352 87.6093 22.0698C87.1512 21.9171 86.7567 21.688 86.4258 21.3826L87.2085 20.0081C87.463 20.2499 87.743 20.4344 88.0484 20.5617C88.3538 20.689 88.6784 20.7526 89.022 20.7526C89.4674 20.7526 89.8365 20.6381 90.1292 20.409C90.4219 20.1799 90.6955 19.7727 90.95 19.1872L91.58 17.7937L91.7709 17.5646L95.7416 8.38243H97.536L92.6299 19.5118C92.3372 20.2244 92.0063 20.7844 91.6373 21.1917C91.2809 21.5989 90.8864 21.8852 90.4537 22.0507C90.021 22.2289 89.5438 22.318 89.022 22.318ZM91.4273 18.8245L86.8076 8.38243H88.7165L92.649 17.3928L91.4273 18.8245ZM99.5136 18.5V5.13717H101.079L107.073 15.2357H106.233L112.151 5.13717H113.716L113.735 18.5H111.903L111.884 8.01973H112.323L107.054 16.8774H106.176L100.869 8.01973H101.346V18.5H99.5136ZM117.479 18.5V8.38243H119.311V18.5H117.479ZM118.395 6.43528C118.038 6.43528 117.739 6.32074 117.498 6.09166C117.269 5.86258 117.154 5.5826 117.154 5.25171C117.154 4.9081 117.269 4.62175 117.498 4.39267C117.739 4.1636 118.038 4.04906 118.395 4.04906C118.751 4.04906 119.044 4.1636 119.273 4.39267C119.515 4.60902 119.636 4.88264 119.636 5.21353C119.636 5.55715 119.521 5.84986 119.292 6.09166C119.063 6.32074 118.764 6.43528 118.395 6.43528ZM128.213 8.28698C129.04 8.28698 129.765 8.44606 130.389 8.76423C131.025 9.08239 131.522 9.566 131.878 10.215C132.234 10.8641 132.412 11.685 132.412 12.6776V18.5H130.58V12.8876C130.58 11.9077 130.338 11.1695 129.854 10.6732C129.383 10.1769 128.715 9.9287 127.85 9.9287C127.201 9.9287 126.635 10.056 126.151 10.3105C125.667 10.565 125.292 10.9405 125.025 11.4368C124.77 11.9331 124.643 12.5504 124.643 13.2885V18.5H122.81V8.38243H124.566V11.1123L124.28 10.3869C124.611 9.72508 125.12 9.20965 125.807 8.84059C126.495 8.47152 127.296 8.28698 128.213 8.28698ZM139.985 18.6145C139.005 18.6145 138.127 18.3982 137.35 17.9655C136.587 17.5328 135.982 16.9283 135.537 16.152C135.091 15.3756 134.869 14.4721 134.869 13.4412C134.869 12.4104 135.091 11.5132 135.537 10.7496C135.982 9.97324 136.587 9.36874 137.35 8.93603C138.127 8.50333 139.005 8.28698 139.985 8.28698C140.837 8.28698 141.607 8.47788 142.294 8.85968C142.982 9.24147 143.529 9.81416 143.936 10.5778C144.356 11.3413 144.566 12.2958 144.566 13.4412C144.566 14.5866 144.363 15.5411 143.955 16.3047C143.561 17.0683 143.02 17.6473 142.333 18.0418C141.645 18.4236 140.863 18.6145 139.985 18.6145ZM140.137 17.011C140.774 17.011 141.346 16.8646 141.855 16.5719C142.377 16.2792 142.784 15.8656 143.077 15.3311C143.383 14.7839 143.535 14.1539 143.535 13.4412C143.535 12.7158 143.383 12.0922 143.077 11.5704C142.784 11.0359 142.377 10.6223 141.855 10.3296C141.346 10.0369 140.774 9.89052 140.137 9.89052C139.488 9.89052 138.909 10.0369 138.4 10.3296C137.891 10.6223 137.484 11.0359 137.178 11.5704C136.873 12.0922 136.72 12.7158 136.72 13.4412C136.72 14.1539 136.873 14.7839 137.178 15.3311C137.484 15.8656 137.891 16.2792 138.4 16.5719C138.909 16.8646 139.488 17.011 140.137 17.011ZM143.593 18.5V15.7702L143.707 13.4221L143.516 11.0741V4.3354H145.349V18.5H143.593ZM153.321 18.6145C152.24 18.6145 151.285 18.3918 150.458 17.9464C149.644 17.501 149.007 16.8901 148.549 16.1138C148.104 15.3375 147.881 14.4466 147.881 13.4412C147.881 12.4358 148.097 11.545 148.53 10.7687C148.975 9.99233 149.58 9.38783 150.343 8.95512C151.12 8.5097 151.992 8.28698 152.959 8.28698C153.939 8.28698 154.804 8.50333 155.555 8.93603C156.306 9.36874 156.891 9.97961 157.311 10.7687C157.744 11.545 157.96 12.4549 157.96 13.4985C157.96 13.5748 157.954 13.6639 157.941 13.7657C157.941 13.8676 157.935 13.963 157.922 14.0521H149.313V12.7349H156.968L156.223 13.193C156.236 12.544 156.102 11.9649 155.822 11.4559C155.542 10.9468 155.154 10.5523 154.658 10.2723C154.174 9.97961 153.608 9.83325 152.959 9.83325C152.322 9.83325 151.756 9.97961 151.26 10.2723C150.763 10.5523 150.375 10.9532 150.095 11.475C149.815 11.984 149.675 12.5695 149.675 13.2312V13.5367C149.675 14.2112 149.828 14.8157 150.133 15.3502C150.452 15.872 150.891 16.2792 151.451 16.5719C152.011 16.8646 152.653 17.011 153.379 17.011C153.977 17.011 154.518 16.9092 155.001 16.7056C155.498 16.5019 155.93 16.1965 156.299 15.7893L157.311 16.9728C156.853 17.5073 156.28 17.9146 155.593 18.1946C154.919 18.4745 154.161 18.6145 153.321 18.6145ZM160.505 18.5V8.38243H162.261V11.1314L162.089 10.4441C162.369 9.74417 162.84 9.20965 163.502 8.84059C164.164 8.47152 164.978 8.28698 165.946 8.28698V10.0623C165.869 10.0496 165.793 10.0432 165.717 10.0432C165.653 10.0432 165.589 10.0432 165.526 10.0432C164.546 10.0432 163.769 10.3359 163.197 10.9214C162.624 11.5068 162.338 12.3531 162.338 13.4603V18.5H160.505Z" fill="#087F5B"/>
</svg>
